<svg width="1280" height="851" viewBox="0 0 1280 851" fill="none" xmlns="http://www.w3.org/2000/svg">
<g clip-path="url(#clip0_110_110)">
<rect width="1280" height="851" fill="white"/>
<rect width="1280" height="851" fill="#00932A"/>
<path fill-rule="evenodd" clip-rule="evenodd" d="M242.222 1097.55C461.909 1097.55 640 938.206 640 741.643C640 636.561 356.581 723.681 275.64 658.531C205.176 601.814 344.465 385.734 242.222 385.734C22.5355 385.734 -155.556 545.08 -155.556 741.643C-155.556 938.206 22.5355 1097.55 242.222 1097.55Z" fill="#119D39"/>
<path opacity="0.541829" fill-rule="evenodd" clip-rule="evenodd" d="M768.418 -166.156C724.004 59.2153 892.192 274.129 1144.08 313.868C1278.73 335.113 1224.39 26.7469 1324.24 -43.1165C1411.17 -103.937 1659.9 82.6402 1680.57 -22.2481C1724.98 -247.619 1556.8 -462.533 1304.91 -502.272C1053.03 -542.011 812.832 -391.527 768.418 -166.156Z" fill="#119D39"/>
<path opacity="0.6" fill-rule="evenodd" clip-rule="evenodd" d="M195.122 -186.064C-11.3159 -118.835 -117.756 85.4006 -42.6189 270.109C-2.4507 368.854 230.574 200.256 331.537 236.707C419.432 268.441 371.141 514.115 467.218 482.826C673.656 415.598 780.096 211.362 704.959 26.6534C629.822 -158.055 401.56 -253.292 195.122 -186.064Z" fill="#119D39"/>
<path fill-rule="evenodd" clip-rule="evenodd" d="M1783.45 820.746C1832.46 572.016 1646.84 334.827 1368.85 290.969C1220.24 267.523 1280.21 607.849 1170.01 684.954C1074.08 752.079 799.566 546.163 776.754 661.923C727.736 910.653 913.356 1147.84 1191.35 1191.7C1469.34 1235.56 1734.43 1069.48 1783.45 820.746Z" fill="#119D39"/>
</g>
<defs>
<clipPath id="clip0_110_110">
<rect width="1280" height="851" fill="white"/>
</clipPath>
</defs>
</svg>
